---
---
<svg width="800px" height="800px" viewBox="0 0 32 32" xmlns="http://www.w3.org/2000/svg">
  <rect width="32" height="32" fill="#f7df1e"/>
  <path d="M8.636 26.545l2.454-1.491c.473.84.902 1.551 1.933 1.551.987 0 1.611-.386 1.611-1.89v-10.2h3.018v10.236c0 3.13-1.837 4.552-4.52 4.552-2.423 0-3.833-1.255-4.504-2.758zm10.09-.168l2.454-1.418c.646 1.057 1.484 1.837 2.968 1.837 1.248 0 2.045-.624 2.045-1.49 0-1.037-.82-1.404-2.205-2.01l-.756-.324c-2.18-.927-3.627-2.09-3.627-4.545 0-2.262 1.723-3.984 4.414-3.984 1.914 0 3.292.668 4.28 2.423l-2.34 1.504c-.516-.927-1.072-1.29-1.94-1.29-.883 0-1.444.561-1.444 1.29 0 .902.561 1.27 1.857 1.837l.756.324c2.572 1.1 4.019 2.217 4.019 4.726 0 2.708-2.13 4.19-4.993 4.19-2.8 0-4.61-1.334-5.484-3.08z" fill="#000"/>
</svg>